<mxfile host="app.diagrams.net" agent="Mozilla/5.0 (X11; Linux x86_64; rv:139.0) Gecko/20100101 Firefox/139.0" version="28.1.0">
  <diagram name="Page-1" id="hAeGHoKPz2SVVgrR8QKc">
    <mxGraphModel dx="1371" dy="912" grid="1" gridSize="10" guides="1" tooltips="1" connect="1" arrows="1" fold="1" page="1" pageScale="1" pageWidth="850" pageHeight="1100" math="0" shadow="0">
      <root>
        <mxCell id="0" />
        <mxCell id="1" parent="0" />
        <mxCell id="Jd_4TmCb1R6S9yWyXlJG-1" value="&lt;font style=&quot;font-size: 29px;&quot;&gt;check in&lt;/font&gt;" style="rounded=0;whiteSpace=wrap;html=1;" vertex="1" parent="1">
          <mxGeometry x="50" y="170" width="140" height="60" as="geometry" />
        </mxCell>
        <mxCell id="Jd_4TmCb1R6S9yWyXlJG-3" value="&lt;font style=&quot;font-size: 20px;&quot;&gt;time&lt;/font&gt;" style="ellipse;whiteSpace=wrap;html=1;" vertex="1" parent="1">
          <mxGeometry x="600" y="160" width="120" height="80" as="geometry" />
        </mxCell>
        <mxCell id="Jd_4TmCb1R6S9yWyXlJG-11" value="&lt;font style=&quot;font-size: 20px;&quot;&gt;worked hours&lt;/font&gt;" style="rounded=0;whiteSpace=wrap;html=1;" vertex="1" parent="1">
          <mxGeometry x="40" y="390" width="160" height="60" as="geometry" />
        </mxCell>
        <mxCell id="Jd_4TmCb1R6S9yWyXlJG-12" value="&lt;font style=&quot;font-size: 20px;&quot;&gt;expected hours&lt;/font&gt;" style="rounded=0;whiteSpace=wrap;html=1;" vertex="1" parent="1">
          <mxGeometry x="260" y="390" width="160" height="60" as="geometry" />
        </mxCell>
        <mxCell id="Jd_4TmCb1R6S9yWyXlJG-13" value="&lt;font style=&quot;font-size: 20px;&quot;&gt;break hours&lt;/font&gt;" style="rounded=0;whiteSpace=wrap;html=1;" vertex="1" parent="1">
          <mxGeometry x="470" y="390" width="160" height="60" as="geometry" />
        </mxCell>
        <mxCell id="Jd_4TmCb1R6S9yWyXlJG-14" value="&lt;font style=&quot;font-size: 20px;&quot;&gt;remaining hours&lt;/font&gt;" style="rounded=0;whiteSpace=wrap;html=1;" vertex="1" parent="1">
          <mxGeometry x="680" y="390" width="160" height="60" as="geometry" />
        </mxCell>
        <mxCell id="Jd_4TmCb1R6S9yWyXlJG-15" value="4:00" style="ellipse;whiteSpace=wrap;html=1;" vertex="1" parent="1">
          <mxGeometry x="60" y="470" width="120" height="80" as="geometry" />
        </mxCell>
        <mxCell id="Jd_4TmCb1R6S9yWyXlJG-16" value="8:00" style="ellipse;whiteSpace=wrap;html=1;" vertex="1" parent="1">
          <mxGeometry x="280" y="470" width="120" height="80" as="geometry" />
        </mxCell>
        <mxCell id="Jd_4TmCb1R6S9yWyXlJG-17" value="1:30" style="ellipse;whiteSpace=wrap;html=1;" vertex="1" parent="1">
          <mxGeometry x="490" y="460" width="120" height="80" as="geometry" />
        </mxCell>
        <mxCell id="Jd_4TmCb1R6S9yWyXlJG-18" value="4:00" style="ellipse;whiteSpace=wrap;html=1;" vertex="1" parent="1">
          <mxGeometry x="700" y="460" width="120" height="80" as="geometry" />
        </mxCell>
        <mxCell id="Jd_4TmCb1R6S9yWyXlJG-19" value="logs" style="rounded=0;whiteSpace=wrap;html=1;" vertex="1" parent="1">
          <mxGeometry x="70" y="660" width="120" height="60" as="geometry" />
        </mxCell>
        <mxCell id="Jd_4TmCb1R6S9yWyXlJG-20" value="checked in at 10:00 a.m" style="rounded=0;whiteSpace=wrap;html=1;" vertex="1" parent="1">
          <mxGeometry x="70" y="960" width="200" height="60" as="geometry" />
        </mxCell>
        <mxCell id="Jd_4TmCb1R6S9yWyXlJG-21" value="checked out at 01:30 p.m" style="rounded=0;whiteSpace=wrap;html=1;" vertex="1" parent="1">
          <mxGeometry x="70" y="870" width="200" height="60" as="geometry" />
        </mxCell>
        <mxCell id="Jd_4TmCb1R6S9yWyXlJG-22" value="checked in at 02:00 p.m" style="rounded=0;whiteSpace=wrap;html=1;" vertex="1" parent="1">
          <mxGeometry x="70" y="790" width="200" height="60" as="geometry" />
        </mxCell>
      </root>
    </mxGraphModel>
  </diagram>
</mxfile>
